<svg width="142" height="111" viewBox="0 0 142 111" fill="none" xmlns="http://www.w3.org/2000/svg">
<path d="M22.2222 90.0859L24.512 97.4394" stroke="#E5A857" stroke-width="1.2" stroke-linecap="round"/>
<path d="M27.0415 92.6094L19.6933 94.9161" stroke="#E5A857" stroke-width="1.2" stroke-linecap="round"/>
<path d="M24.772 90.1749L21.9615 97.3456" stroke="#E5A857" stroke-width="1.2" stroke-linecap="round"/>
<path d="M26.8374 95.4383L19.9073 92.078" stroke="#E5A857" stroke-width="1.2" stroke-linecap="round"/>
<path d="M35.4614 70.7536L28.5725 74.1976" stroke="#E5A857" stroke-width="1.2" stroke-linecap="round"/>
<path d="M33.7471 75.9162L30.2873 69.0353" stroke="#E5A857" stroke-width="1.2" stroke-linecap="round"/>
<path d="M35.7842 73.285L28.2545 71.6658" stroke="#E5A857" stroke-width="1.2" stroke-linecap="round"/>
<path d="M30.9214 76.1708L33.1221 68.7901" stroke="#E5A857" stroke-width="1.2" stroke-linecap="round"/>
<path d="M69.0562 62.0237L61.6304 59.9803" stroke="#E5A857" stroke-width="1.2" stroke-linecap="round"/>
<path d="M64.3301 64.7174L66.3564 57.2869" stroke="#E5A857" stroke-width="1.2" stroke-linecap="round"/>
<path d="M67.605 64.1219L63.0871 57.8845" stroke="#E5A857" stroke-width="1.2" stroke-linecap="round"/>
<path d="M62.0591 63.0182L68.6295 58.9997" stroke="#E5A857" stroke-width="1.2" stroke-linecap="round"/>
<path d="M102.209 28.3425L94.7832 26.2992" stroke="#E5A857" stroke-width="1.2" stroke-linecap="round"/>
<path d="M97.4824 31.0362L99.5087 23.6058" stroke="#E5A857" stroke-width="1.2" stroke-linecap="round"/>
<path d="M100.757 30.4409L96.2394 24.2034" stroke="#E5A857" stroke-width="1.2" stroke-linecap="round"/>
<path d="M95.2114 29.337L101.782 25.3186" stroke="#E5A857" stroke-width="1.2" stroke-linecap="round"/>
<path d="M119.138 7.69114L111.712 5.6478" stroke="#E5A857" stroke-width="1.2" stroke-linecap="round"/>
<path d="M114.411 10.385L116.437 2.95452" stroke="#E5A857" stroke-width="1.2" stroke-linecap="round"/>
<path d="M117.686 9.78953L113.168 3.55206" stroke="#E5A857" stroke-width="1.2" stroke-linecap="round"/>
<path d="M112.141 8.68577L118.711 4.66735" stroke="#E5A857" stroke-width="1.2" stroke-linecap="round"/>
<path d="M121.697 35.1446L114.003 34.7919" stroke="#E5A857" stroke-width="1.2" stroke-linecap="round"/>
<path d="M117.682 38.8155L118.017 31.121" stroke="#E5A857" stroke-width="1.2" stroke-linecap="round"/>
<path d="M120.745 37.5119L114.961 32.4264" stroke="#E5A857" stroke-width="1.2" stroke-linecap="round"/>
<path d="M115.092 37.6601L120.613 32.2897" stroke="#E5A857" stroke-width="1.2" stroke-linecap="round"/>
<path d="M64.5142 86.3491L60.3044 92.7986" stroke="#E5A857" stroke-width="1.2" stroke-linecap="round"/>
<path d="M65.6382 91.6714L59.1791 87.4764" stroke="#E5A857" stroke-width="1.2" stroke-linecap="round"/>
<path d="M66.0693 88.3717L58.7515 90.7731" stroke="#E5A857" stroke-width="1.2" stroke-linecap="round"/>
<path d="M63.3276 93.3165L61.5034 85.8339" stroke="#E5A857" stroke-width="1.2" stroke-linecap="round"/>
<path d="M118.72 18.2211L98.5851 27.3671L80.8851 36.5559L65.594 61.1333L62.5298 89.9448L60.5643 97.8269L44.5266 95.5963L23.3665 93.7627L14.1348 78.4978L17.6211 74.1745L24.3201 67.2282L31.792 71.7441" stroke="#E5A857" stroke-width="1.2" stroke-linecap="round"/>
<path d="M115.512 6.71591L98.5849 27.3671L117.938 35.015" stroke="#E5A857" stroke-width="1.2" stroke-linecap="round"/>
<circle cx="118.721" cy="18.2209" r="0.65527" transform="rotate(-17.4278 118.721 18.2209)" fill="#E5A857" stroke="#E5A857"/>
<circle cx="80.8857" cy="36.5559" r="0.65527" transform="rotate(-17.4278 80.8857 36.5559)" fill="#E5A857" stroke="#E5A857"/>
<circle cx="60.5645" cy="97.8269" r="0.65527" transform="rotate(-17.4278 60.5645 97.8269)" fill="#E5A857" stroke="#E5A857"/>
<circle cx="44.5269" cy="95.5962" r="0.65527" transform="rotate(-17.4278 44.5269 95.5962)" fill="#E5A857" stroke="#E5A857"/>
<circle cx="14.1353" cy="78.4978" r="0.65527" transform="rotate(-17.4278 14.1353 78.4978)" fill="#E5A857" stroke="#E5A857"/>
<circle cx="17.6211" cy="74.1744" r="0.65527" transform="rotate(-17.4278 17.6211 74.1744)" fill="#E5A857" stroke="#E5A857"/>
<circle cx="24.3208" cy="67.2281" r="0.65527" transform="rotate(-17.4278 24.3208 67.2281)" fill="#E5A857" stroke="#E5A857"/>
</svg>
