<svg width="50" height="50" viewBox="0 0 50 50" fill="none" xmlns="http://www.w3.org/2000/svg">
<path d="M13 15.75C13 14.782 13.7661 14 14.7143 14H35.2857C36.2339 14 37 14.782 37 15.75C37 16.718 36.2339 17.5 35.2857 17.5H14.7143C13.7661 17.5 13 16.718 13 15.75ZM13 24.5C13 23.532 13.7661 22.75 14.7143 22.75H35.2857C36.2339 22.75 37 23.532 37 24.5C37 25.468 36.2339 26.25 35.2857 26.25H14.7143C13.7661 26.25 13 25.468 13 24.5ZM37 33.25C37 34.218 36.2339 35 35.2857 35H14.7143C13.7661 35 13 34.218 13 33.25C13 32.282 13.7661 31.5 14.7143 31.5H35.2857C36.2339 31.5 37 32.282 37 33.25Z" fill="#E5A857"/>
</svg>
